<svg width="120" height="41" viewBox="0 0 120 41" fill="none" xmlns="http://www.w3.org/2000/svg">
<g clip-path="url(#clip0)">
<path d="M116.262 24.7259L119.591 26.9618C118.511 28.5651 115.927 31.3158 111.459 31.3158C105.911 31.3158 101.779 26.9912 101.779 21.4898C101.779 15.6354 105.954 11.6638 110.992 11.6638C116.058 11.6638 118.54 15.7237 119.343 17.9154L119.781 19.0333L106.728 24.4759C107.721 26.447 109.269 27.4472 111.459 27.4472C113.649 27.4472 115.167 26.3587 116.262 24.7259ZM106.027 21.1809L114.744 17.5329C114.262 16.312 112.831 15.4442 111.123 15.4442C108.948 15.4442 105.925 17.3858 106.027 21.1809Z" fill="#FF302F"/>
<path d="M72.4465 21.4898C72.4465 27.153 68.0663 31.3158 62.6934 31.3158C57.3204 31.3158 52.9403 27.153 52.9403 21.4898C52.9403 15.7972 57.3204 11.6638 62.6934 11.6638C68.0663 11.6638 72.4465 15.7825 72.4465 21.4898ZM68.1685 21.4898C68.1685 17.9595 65.6281 15.5324 62.6788 15.5324C59.7295 15.5324 57.189 17.9595 57.189 21.4898C57.189 24.9907 59.7295 27.4472 62.6788 27.4472C65.6427 27.4472 68.1685 24.976 68.1685 21.4898Z" fill="#FFBA40"/>
<path d="M88.8574 12.4285H92.9163V29.9035C92.9163 37.1553 88.6676 40.1414 83.645 40.1414C78.9145 40.1414 76.0674 36.9347 75.0016 34.3311L78.7247 32.7719C79.3963 34.3752 81.017 36.2728 83.645 36.2728C86.8717 36.2728 88.8574 34.2576 88.8574 30.4919V29.0798H88.7114C87.7478 30.2565 85.9081 31.3156 83.572 31.3156C78.6955 31.3156 74.2278 27.0352 74.2278 21.5191C74.2278 15.9735 78.6955 11.6489 83.572 11.6489C85.8935 11.6489 87.7478 12.6933 88.7114 13.8407H88.8574V12.4285ZM89.1494 21.5191C89.1494 18.0476 86.8571 15.5175 83.9371 15.5175C80.9878 15.5175 78.5057 18.0476 78.5057 21.5191C78.5057 24.9464 80.9878 27.4323 83.9371 27.4323C86.8571 27.447 89.1494 24.9464 89.1494 21.5191Z" fill="#3686F7"/>
<path d="M51.1445 21.4455C51.1445 27.1086 46.7643 31.2715 41.3914 31.2715C36.0184 31.2715 31.6383 27.0939 31.6383 21.4455C31.6383 15.7528 36.0184 11.6047 41.3914 11.6047C46.7643 11.6047 51.1445 15.7528 51.1445 21.4455ZM46.8811 21.4455C46.8811 17.9151 44.3407 15.4881 41.3914 15.4881C38.4421 15.4881 35.9016 17.9151 35.9016 21.4455C35.9016 24.9463 38.4421 27.4028 41.3914 27.4028C44.3407 27.4028 46.8811 24.9463 46.8811 21.4455Z" fill="#FF302F"/>
<path d="M95.486 1.64648H99.6909V30.4184H95.486V1.64648Z" fill="#20B15A"/>
<path d="M15.6071 27.0058C9.4895 27.0058 4.70057 22.0339 4.70057 15.8706C4.70057 9.70729 9.4895 4.73545 15.6071 4.73545C18.9068 4.73545 21.3158 6.0446 23.0971 7.72149L26.0318 4.76486C23.5497 2.3672 20.2354 0.543213 15.6071 0.543213C7.22644 0.543213 0.174438 7.4273 0.174438 15.8706C0.174438 24.3139 7.22644 31.198 15.6071 31.198C20.1332 31.198 23.5497 29.6976 26.2216 26.9028C28.9665 24.1374 29.8133 20.2541 29.8133 17.1062C29.8133 16.1207 29.6965 15.1057 29.5651 14.3555H15.6071V18.4448H25.55C25.258 21.0042 24.4549 22.7547 23.2723 23.9462C21.8415 25.4024 19.5784 27.0058 15.6071 27.0058Z" fill="#3686F7"/>
</g>
<defs>
<clipPath id="clip0">
<rect width="120" height="39.6694" fill="white" transform="translate(0 0.481934)"/>
</clipPath>
</defs>
</svg>
