<svg width="146" height="47" viewBox="0 0 146 47" fill="none" xmlns="http://www.w3.org/2000/svg">
<g clip-path="url(#clip0)">
<path d="M31.3149 9.95022C31.2911 9.73617 31.1006 9.64103 30.9577 9.64103C30.8149 9.64103 27.6953 9.4032 27.6953 9.4032C27.6953 9.4032 25.5282 7.23886 25.2663 7.0248C25.0281 6.78696 24.5757 6.85831 24.3851 6.90588C24.3613 6.90588 23.9089 7.04859 23.1706 7.28642C22.4324 5.16965 21.1703 3.24315 18.908 3.24315H18.6937C18.0745 2.4345 17.2648 2.05396 16.5981 2.05396C11.359 2.05396 8.83478 8.59454 8.04893 11.9243C6.00095 12.5665 4.54831 12.9946 4.38161 13.0659C3.23855 13.4227 3.21474 13.4465 3.07186 14.5167C2.95279 15.3254 -0.0239258 38.3245 -0.0239258 38.3245L23.1468 42.6532L35.7205 39.9418C35.7443 39.8942 31.3388 10.1643 31.3149 9.95022ZM21.8847 7.6194C21.3132 7.78589 20.6226 7.99994 19.932 8.23778V7.80967C19.932 6.52533 19.7653 5.47884 19.4557 4.6464C20.6464 4.78911 21.3846 6.09723 21.8847 7.6194ZM18.0031 4.90803C18.3126 5.71668 18.527 6.85831 18.527 8.42805V8.66589C17.241 9.07022 15.8836 9.47454 14.4786 9.92644C15.2645 6.92966 16.7647 5.45506 18.0031 4.90803ZM16.479 3.43342C16.7171 3.43342 16.9553 3.52856 17.1458 3.67126C15.455 4.45613 13.669 6.4302 12.9307 10.4259C11.8115 10.7827 10.7399 11.0919 9.71589 11.4248C10.5732 8.38049 12.7164 3.43342 16.479 3.43342Z" fill="#95BF47"/>
<path d="M18.9081 16.5384L17.384 21.1287C17.384 21.1287 16.0028 20.3914 14.3597 20.3914C11.9069 20.3914 11.7878 21.9373 11.7878 22.3179C11.7878 24.4109 17.265 25.2195 17.265 30.1428C17.265 34.0196 14.8121 36.5169 11.502 36.5169C7.50133 36.5169 5.50098 34.0434 5.50098 34.0434L6.57259 30.5233C6.57259 30.5233 8.6682 32.3309 10.4304 32.3309C11.5973 32.3309 12.0736 31.4271 12.0736 30.7612C12.0736 28.026 7.59658 27.9071 7.59658 23.3882C7.59658 19.6065 10.3113 15.9438 15.8123 15.9438C17.8603 15.92 18.9081 16.5384 18.9081 16.5384Z" fill="white"/>
<path d="M50.3899 25.1718C49.1277 24.5059 48.4848 23.9113 48.4848 23.1264C48.4848 22.1275 49.3897 21.4853 50.7947 21.4853C52.4378 21.4853 53.8905 22.1513 53.8905 22.1513L55.0335 18.655C55.0335 18.655 53.9857 17.8464 50.8899 17.8464C46.5797 17.8464 43.5791 20.3199 43.5791 23.7924C43.5791 25.7664 44.9841 27.2648 46.8416 28.3351C48.3657 29.1675 48.8896 29.7859 48.8896 30.6897C48.8896 31.6173 48.1276 32.3784 46.7225 32.3784C44.6508 32.3784 42.6742 31.3081 42.6742 31.3081L41.4597 34.8043C41.4597 34.8043 43.2696 36.0173 46.3177 36.0173C50.7471 36.0173 53.9619 33.8292 53.9619 29.9048C53.9143 27.7643 52.3188 26.2897 50.3899 25.1718ZM68.0596 17.7988C65.8688 17.7988 64.1542 18.8453 62.8444 20.415L62.7968 20.3913L64.7019 10.4971H59.7725L54.9621 35.7081H59.8915L61.5347 27.0983C62.1777 23.8399 63.8684 21.8183 65.4401 21.8183C66.5594 21.8183 66.988 22.5794 66.988 23.6497C66.988 24.3156 66.9404 25.1718 66.7737 25.8378L64.9162 35.7081H69.8457L71.7746 25.5286C71.9889 24.4583 72.1318 23.174 72.1318 22.294C72.108 19.4637 70.6553 17.7988 68.0596 17.7988ZM83.2766 17.7988C77.3232 17.7988 73.3939 23.1502 73.3939 29.12C73.3939 32.9254 75.7515 36.0173 80.1808 36.0173C86.0152 36.0173 89.9445 30.8086 89.9445 24.6962C89.9683 21.1523 87.9203 17.7988 83.2766 17.7988ZM80.8476 32.2595C79.1568 32.2595 78.4662 30.8324 78.4662 29.0248C78.4662 26.1945 79.9189 21.6042 82.6098 21.6042C84.3482 21.6042 84.9436 23.1264 84.9436 24.5772C84.9436 27.5978 83.4433 32.2595 80.8476 32.2595ZM102.59 17.7988C99.2556 17.7988 97.3743 20.748 97.3743 20.748H97.3267L97.6125 18.108H93.2308C93.0164 19.8918 92.6116 22.627 92.2306 24.6486L88.8252 42.7006H93.7547L95.1358 35.3989H95.2549C95.2549 35.3989 96.2789 36.0411 98.1364 36.0411C103.947 36.0411 107.733 30.0951 107.733 24.1016C107.709 20.7718 106.209 17.7988 102.59 17.7988ZM97.8744 32.307C96.5885 32.307 95.8264 31.5697 95.8264 31.5697L96.6361 26.9794C97.2076 23.8875 98.827 21.8659 100.542 21.8659C102.066 21.8659 102.518 23.2691 102.518 24.5772C102.542 27.7643 100.637 32.307 97.8744 32.307ZM114.758 10.735C113.187 10.735 111.925 11.9955 111.925 13.5891C111.925 15.0399 112.853 16.0626 114.258 16.0626H114.306C115.854 16.0626 117.164 15.0161 117.187 13.2085C117.211 11.7577 116.235 10.735 114.758 10.735ZM107.852 35.6843H112.782L116.116 18.1794H111.162L107.852 35.6843ZM128.689 18.1556H125.26L125.427 17.3469C125.713 15.6583 126.713 14.1837 128.38 14.1837C129.261 14.1837 129.952 14.4453 129.952 14.4453L130.904 10.5685C130.904 10.5685 130.071 10.1404 128.213 10.1404C126.475 10.1404 124.712 10.6398 123.379 11.7815C121.688 13.2085 120.902 15.2777 120.521 17.3707L120.378 18.1794H118.068L117.33 21.9134H119.64L117.021 35.7081H121.95L124.57 21.9134H127.975L128.689 18.1556ZM140.572 18.1794C140.572 18.1794 137.477 25.9567 136.119 30.214H136.072C135.976 28.8346 134.857 18.1794 134.857 18.1794H129.666L132.642 34.2097C132.69 34.5665 132.666 34.7806 132.523 35.0184C131.952 36.1362 130.976 37.2065 129.832 37.9914C128.904 38.6573 127.856 39.1092 127.022 39.3946L128.404 43.5806C129.404 43.3666 131.499 42.5341 133.238 40.893C135.476 38.8 137.572 35.5416 139.715 31.1178L145.74 18.1556H140.572V18.1794Z" fill="black"/>
<path d="M30.9577 9.59341C30.8148 9.59341 27.6952 9.35557 27.6952 9.35557C27.6952 9.35557 25.5282 7.19123 25.2662 6.97718C25.171 6.88204 25.0519 6.83447 24.9567 6.83447L23.2183 42.6531L35.7919 39.9417C35.7919 39.9417 31.3864 10.1642 31.3626 9.95017C31.2673 9.73612 31.1006 9.64098 30.9577 9.59341Z" fill="#5E8E3E"/>
</g>
<defs>
<clipPath id="clip0">
<rect width="145.74" height="45.6652" fill="white" transform="translate(0 0.484131)"/>
</clipPath>
</defs>
</svg>
